<?xml version="1.0" encoding="UTF-8"?>
<!-- Generator: Adobe Illustrator 15.0.0, SVG Export Plug-In . SVG Version: 6.00 Build 0)  -->
<!DOCTYPE svg PUBLIC "-//W3C//DTD SVG 1.1//EN" "http://www.w3.org/Graphics/SVG/1.1/DTD/svg11.dtd">
<svg version="1.1" id="Ebene_1" xmlns="http://www.w3.org/2000/svg" xmlns:xlink="http://www.w3.org/1999/xlink" x="0px" y="0px" width="595.28px" height="841.89px" viewBox="0 0 595.28 841.89" enable-background="new 0 0 595.28 841.89" xml:space="preserve">
<g>
	<path fill="#89BA17" d="M382.819,248.095c-0.271-1.35-1.623-2.441-2.982-2.441c-2.926,0-5.852,0-8.779,0   c0.393,0.584,0.686,1.232,0.826,1.929c2.998,14.971,2.998,30.148-0.001,45.115c-0.141,0.695-0.433,1.342-0.823,1.926   c2.926,0,5.852,0,8.777,0c1.359,0,2.711-1.09,2.982-2.441C385.734,277.631,385.734,262.646,382.819,248.095z"/>
</g>
<path fill="#EC7404" d="M368.89,248.095c-0.271-1.35-1.625-2.441-2.984-2.441c-2.926,0-5.852,0-8.777,0  c0.392,0.584,0.686,1.232,0.826,1.929c2.998,14.968,2.998,30.146-0.002,45.117c-0.14,0.695-0.433,1.342-0.824,1.924  c2.926,0,5.852,0,8.777,0c1.36,0,2.713-1.09,2.983-2.441C371.805,277.631,371.804,262.646,368.89,248.095z"/>
<g>
	<path fill="#C5007B" d="M354.962,248.095c-0.271-1.35-1.624-2.441-2.985-2.441c-2.928,0-5.854,0-8.78,0   c0.392,0.584,0.686,1.232,0.827,1.929c2.998,14.968,2.998,30.146-0.002,45.119c-0.14,0.693-0.434,1.34-0.824,1.922   c2.926,0,5.854,0,8.779,0c1.36,0,2.713-1.09,2.985-2.441C357.877,277.631,357.877,262.646,354.962,248.095z"/>
</g>
<path fill="#87888A" d="M354.509,321.982l-26.796-27.359c3.448,0,6.898,0,10.334,0c1.358,0,2.71-1.09,2.983-2.441  c2.914-14.55,2.914-29.536,0-44.086c-0.273-1.35-1.625-2.441-2.983-2.441c-40.208,0-81.359,0-121.567,0  c-1.358,0-2.71,1.092-2.982,2.441c-2.915,14.551-2.914,29.536,0,44.086c0.271,1.354,1.625,2.441,2.982,2.441  c28.738,0,57.955,0,86.968,0L354.509,321.982z"/>
<g>
	<g>
		<g>
			<path fill="#FFFFFF" d="M244.367,282.435l-1.704-5.93h-8.589l-1.721,5.93h-5.334l8.095-25.016h6.458l8.129,25.016H244.367z      M241.437,272.073l-2.571-9.082c0,0-0.246-1.132-0.47-2.062c-0.173,0.931-0.454,2.062-0.454,2.062l-2.589,9.082H241.437z"/>
			<path fill="#FFFFFF" d="M272.206,282.435h-5.998l-5.738-10.054l-0.389,0.753v9.301h-5.282v-24.914h5.282v10.516l0.912-1.503     l5.283-9.013h5.861l-7.751,11.533L272.206,282.435z"/>
			<path fill="#FFFFFF" d="M321.896,282.435h-5.999c0,0-3.834-16.081-3.902-16.479s-0.128-0.764-0.179-1.1     c-0.051-0.334-0.088-0.604-0.11-0.809c-0.023,0.204-0.06,0.475-0.111,0.809c-0.051,0.336-0.11,0.699-0.179,1.091     s-3.852,16.487-3.852,16.487h-6.016l-5.998-24.914h5.197c0,0,3.602,17.865,3.681,18.319c0.08,0.454,0.153,0.878,0.222,1.27     s0.119,0.713,0.153,0.963c0.034-0.25,0.083-0.568,0.146-0.954c0.062-0.387,0.128-0.799,0.195-1.236     c0.068-0.437,4.261-18.361,4.261-18.361h4.635c0,0,4.195,17.925,4.269,18.361c0.074,0.438,0.143,0.85,0.205,1.236     c0.062,0.386,0.11,0.704,0.145,0.954c0.034-0.25,0.082-0.571,0.146-0.963c0.062-0.392,0.133-0.815,0.213-1.27     c0.079-0.454,3.681-18.319,3.681-18.319h5.197L321.896,282.435z"/>
		</g>
	</g>
	<g>
		<path fill="#FFFFFF" d="M283.314,282.731c-4.285-0.015-6.83-1.524-6.83-1.524v-4.712c0,0,2.632,1.974,6.085,2.017    c2.124,0.026,3.806-0.659,3.976-2.42c0.212-2.195-1.293-3.136-3.081-4.097l-2.348-1.244c-2.198-1.174-4.211-3.207-4.211-6.729    c0-5.441,4.695-6.9,8.123-6.9c3.652,0,6.538,1.737,6.538,1.737l-1.655,3.823c0,0-2.156-1.398-4.652-1.398    c-1.863,0-3.354,0.64-3.354,2.632c0,1.743,1.335,2.587,2.862,3.405l2.236,1.174c2.385,1.244,4.733,3.062,4.733,6.945    C291.737,280.87,287.041,282.744,283.314,282.731z"/>
	</g>
</g>
</svg>